<svg width="67" height="100" viewBox="0 0 67 100" fill="none" xmlns="http://www.w3.org/2000/svg">
<path d="M14.901 11.2249C-7.64562 16.1619 47.2931 73.009 54.5652 99.167C49.6213 76.9089 18.0193 20.0318 17.6362 0.754562C17.6362 0.754562 7.91625 -0.474969 14.901 11.2249Z" fill="white"/>
<path d="M15.0001 9C15.0001 35.3603 24 86 15.0001 86C6.0001 86 15 34.6667 15.0001 9Z" fill="white"/>
<path d="M13.0696 47.4311C13.0466 47.4538 13.0234 47.4768 13.0001 47.5001C16 49.0001 13.0001 55.0001 13.0001 55.0001C12.7462 52.5533 9.50006 51 5.50006 47.5001C9.04906 48.0647 11.5051 47.8486 13.0696 47.4311C16.326 46.5622 15.7203 44.8209 13.0696 47.4311Z" fill="white"/>
<path d="M13.0001 47.5001C17 43.5001 16.5001 49.25 5.50006 47.5001C9.50006 51 12.7462 52.5533 13.0001 55.0001C13.0001 55.0001 16 49.0001 13.0001 47.5001Z" stroke="white"/>
</svg>
